<?xml version="1.0" encoding="UTF-8"?>
<svg id="Layer_2" data-name="Layer 2" xmlns="http://www.w3.org/2000/svg" viewBox="0 0 530.88 530.89">
  <defs>
    <style>
      .cls-1 {
        fill: #080911;
      }
    </style>
  </defs>
  <g id="_Слой_1" data-name="Слой 1">
    <path class="cls-1" d="M528.07,227.27c-3.85-26.92-11.82-52.9-23.45-77.19-12.94-26.83-30.2-51.21-51.49-72.41-103.55-103.55-271.91-103.55-375.47,0C27.58,127.75,0,194.44,0,265.44s27.58,137.69,77.66,187.78c50.09,50.09,116.78,77.66,187.78,77.66s137.69-27.58,187.78-77.66c59.65-59.75,86.95-142.1,74.85-225.95ZM460.82,299.21c-7.69,45.02-29.92,84.89-64.44,115.28-36.96,32.55-83.95,48.77-130.85,48.77s-97.08-17.35-134.6-51.87c-40.05-36.96-62.75-87.42-63.78-141.91-1.13-54.59,19.51-105.8,57.97-144.35,67.53-67.53,173.8-77.38,252.5-23.36,10.04,6.94,19.51,14.82,28.04,23.36,8.63,8.63,16.41,18.01,23.36,28.04,10.6,15.57,18.95,32.45,24.86,50.27l.37,1.31-123.34,123.34c-17.54,17.54-42.02,27.29-66.97,27.29-24.48-.19-47.09-9.76-63.78-26.92-34.14-35.36-33.67-92.39,1.13-127.19,25.33-25.23,63.22-33.3,96.61-20.45l3.38,1.31-64.91,64.81c-13.04,13.13-13.04,34.42,0,47.46,6.38,6.38,14.82,9.85,23.73,9.85s17.45-3.47,23.73-9.85l114.34-114.34c-6.1-9.38-13.23-18.2-21.2-26.26-8.44-8.44-17.82-15.85-27.86-22.14-66.69-41.83-155.04-27.48-205.51,33.39-48.31,58.34-47.46,145.67,1.97,203.07,29.08,33.77,69.5,53.28,113.87,54.87,43.9,1.78,86.67-15.1,117.53-45.96l85.07-85.07-1.22,7.22Z"/>
  </g>
</svg>