<?xml version="1.0" encoding="UTF-8"?>
<svg id="_Слой_1" data-name="Слой 1" xmlns="http://www.w3.org/2000/svg" viewBox="0 0 1300 900">
  <defs>
    <style>
      .cls-1 {
        fill: #080911;
      }
    </style>
  </defs>
  <g>
    <path class="cls-1" d="M628.8,432.63c-2.07-2.26-4.59-4.02-7.55-5.31-2.96-1.28-6.39-1.92-10.29-1.92-4.64,0-8.83,1.13-12.58,3.38-3.75,2.26-6.71,5.32-8.87,9.19-2.17,3.87-3.25,8.31-3.25,13.31s1.07,9.21,3.2,13.17c2.13,3.96,5.12,7.1,8.96,9.42,3.84,2.32,8.32,3.48,13.45,3.48,3.41,0,6.54-.52,9.38-1.56,2.84-1.04,5.29-2.47,7.36-4.3,2.07-1.83,3.6-3.93,4.57-6.31l-9.7-4.76c-1.1,1.95-2.61,3.51-4.53,4.67-1.92,1.16-4.25,1.74-7,1.74s-5.25-.52-7.27-1.92c-14.14-9.81-5.31-30.07,6.27-29.64,2.62.1,4.86.64,6.72,1.92,1.86,1.28,3.2,3.02,4.02,5.21.38,1,.59,2.07.68,3.2h-15.08c-2.53,0-4.57,2.05-4.57,4.57s2.05,4.57,4.57,4.57h27.25c.24-.67.41-1.46.5-2.38s.14-1.8.14-2.65c0-3.35-.55-6.48-1.65-9.38-1.1-2.9-2.68-5.47-4.76-7.73Z"/>
    <polygon class="cls-1" points="684.24 426.51 670.24 426.51 659.77 441.97 649.29 426.51 635.21 426.51 652.68 451.29 635.3 476.27 649.38 476.27 659.77 460.8 670.15 476.27 684.14 476.27 666.86 451.29 684.24 426.51"/>
    <path class="cls-1" d="M701.71,438.31c2.04-1.28,4.38-1.92,7-1.92,2.8,0,5.29.76,7.46,2.29,2.16,1.53,3.71,3.54,4.62,6.04l10.52-4.57c-.98-2.99-2.58-5.56-4.8-7.73-2.23-2.16-4.86-3.87-7.91-5.12-3.05-1.25-6.34-1.88-9.88-1.88-4.94,0-9.38,1.13-13.31,3.38-3.93,2.26-7.03,5.34-9.28,9.24-2.26,3.9-3.38,8.32-3.38,13.26s1.13,9.38,3.38,13.31c2.26,3.93,5.35,7.04,9.28,9.33,3.93,2.29,8.37,3.43,13.31,3.43,3.6,0,6.92-.63,9.97-1.88,3.05-1.25,5.67-2.99,7.87-5.21,2.2-2.22,3.78-4.74,4.76-7.55l-10.52-4.76c-.91,2.56-2.44,4.6-4.57,6.13-2.13,1.53-4.63,2.29-7.5,2.29-2.62,0-4.96-.64-7-1.92-2.04-1.28-3.64-3.05-4.8-5.31-1.16-2.26-1.74-4.85-1.74-7.78s.58-5.52,1.74-7.77c1.16-2.26,2.76-4.02,4.8-5.31Z"/>
    <rect class="cls-1" x="738.52" y="412" width="11.98" height="64.26"/>
    <path class="cls-1" d="M790.85,426.51v29.82c0,2.01-.43,3.78-1.28,5.31-.85,1.52-2.03,2.7-3.52,3.52-1.5.82-3.25,1.23-5.26,1.23s-3.69-.41-5.21-1.23c-1.53-.82-2.71-2-3.57-3.52-.85-1.52-1.28-3.29-1.28-5.31v-29.82h-11.98v30.19c0,4.09.91,7.68,2.74,10.79,1.83,3.11,4.4,5.53,7.73,7.27,3.32,1.74,7.15,2.61,11.48,2.61s8.32-.87,11.62-2.61c3.29-1.74,5.87-4.16,7.73-7.27,1.86-3.11,2.79-6.71,2.79-10.79v-30.19h-11.98Z"/>
  </g>
  <path class="cls-1" d="M573.52,444.48c-.56-3.89-1.71-7.65-3.39-11.16-1.87-3.88-4.37-7.4-7.45-10.47-14.97-14.97-39.32-14.97-54.29,0-7.24,7.24-11.23,16.88-11.23,27.15s3.99,19.91,11.23,27.15c7.24,7.24,16.88,11.23,27.15,11.23s19.91-3.99,27.15-11.23c8.63-8.64,12.57-20.55,10.82-32.67ZM563.8,454.88c-1.11,6.51-4.33,12.27-9.32,16.67-5.34,4.71-12.14,7.05-18.92,7.05s-14.04-2.51-19.46-7.5c-5.79-5.34-9.07-12.64-9.22-20.52-.16-7.89,2.82-15.3,8.38-20.87,9.76-9.76,25.13-11.19,36.51-3.38,1.45,1,2.82,2.14,4.05,3.38s2.37,2.6,3.38,4.05c1.53,2.25,2.74,4.69,3.59,7.27l.05.19-17.83,17.83c-2.54,2.54-6.08,3.95-9.68,3.95-3.54-.03-6.81-1.41-9.22-3.89-4.94-5.11-4.87-13.36.16-18.39,3.66-3.65,9.14-4.81,13.97-2.96l.49.19-9.38,9.37c-1.89,1.9-1.89,4.98,0,6.86.92.92,2.14,1.42,3.43,1.42s2.52-.5,3.43-1.42l16.53-16.53c-.88-1.36-1.91-2.63-3.07-3.8-1.22-1.22-2.58-2.29-4.03-3.2-9.64-6.05-22.42-3.97-29.71,4.83-6.98,8.44-6.86,21.06.28,29.36,4.2,4.88,10.05,7.7,16.46,7.93,6.35.26,12.53-2.18,16.99-6.65l12.3-12.3-.18,1.04Z"/>
</svg>