<?xml version="1.0" encoding="UTF-8"?>
<svg id="Layer_2" data-name="Layer 2" xmlns="http://www.w3.org/2000/svg" viewBox="0 0 1650.39 414.46">
  <defs>
    <style>
      .cls-1 {
        fill: #fff;
      }
    </style>
  </defs>
  <g id="_Слой_1" data-name="Слой 1">
    <g>
      <g>
        <path class="cls-1" d="M710.74,113.47c-11.2-12.18-24.78-21.73-40.75-28.65-15.98-6.92-34.5-10.37-55.56-10.37-25.03,0-47.66,6.1-67.91,18.27-20.25,12.19-36.22,28.73-47.91,49.64-11.69,20.91-17.53,44.87-17.53,71.86s5.76,49.72,17.29,71.12c11.52,21.41,27.66,38.36,48.4,50.87,20.75,12.51,44.94,18.77,72.6,18.77,18.44,0,35.31-2.8,50.63-8.4,15.31-5.59,28.56-13.33,39.76-23.21,11.19-9.88,19.43-21.24,24.7-34.08l-52.35-25.68c-5.93,10.54-14.08,18.94-24.45,25.19-10.37,6.26-22.97,9.38-37.78,9.38s-28.34-2.79-39.27-10.37c-76.34-52.98-28.67-162.35,33.84-160.02,14.14.53,26.25,3.46,36.3,10.37,10.04,6.92,17.29,16.3,21.73,28.15,2.03,5.41,3.18,11.2,3.67,17.29h-81.43c-13.64,0-24.69,11.06-24.69,24.69s11.06,24.69,24.69,24.69h147.16c1.31-3.62,2.22-7.9,2.72-12.84.49-4.94.74-9.71.74-14.32,0-18.1-2.96-34.98-8.89-50.63-5.93-15.64-14.5-29.55-25.68-41.73Z"/>
        <polygon class="cls-1" points="1010.05 80.38 934.48 80.38 877.93 163.88 821.38 80.38 745.31 80.38 839.65 214.22 745.81 349.06 821.87 349.06 877.93 265.55 933.99 349.06 1009.55 349.06 916.21 214.22 1010.05 80.38"/>
        <path class="cls-1" d="M1104.39,144.09c11.03-6.92,23.62-10.37,37.78-10.37,15.14,0,28.56,4.12,40.25,12.35,11.68,8.23,20,19.1,24.94,32.6l56.8-24.7c-5.27-16.13-13.92-30.05-25.93-41.73-12.02-11.68-26.26-20.91-42.72-27.66-16.47-6.74-34.25-10.13-53.34-10.13-26.67,0-50.62,6.1-71.86,18.27-21.24,12.19-37.95,28.82-50.13,49.89-12.19,21.07-18.27,44.94-18.27,71.61s6.09,50.63,18.27,71.86c12.18,21.24,28.89,38.03,50.13,50.38,21.24,12.35,45.19,18.52,71.86,18.52,19.43,0,37.37-3.38,53.84-10.13,16.46-6.75,30.62-16.13,42.48-28.15,11.85-12.01,20.41-25.6,25.68-40.75l-56.8-25.68c-4.94,13.83-13.17,24.86-24.7,33.09-11.53,8.23-25.03,12.35-40.5,12.35-14.16,0-26.76-3.45-37.78-10.37-11.03-6.92-19.68-16.46-25.93-28.65-6.26-12.18-9.38-26.18-9.38-41.98s3.12-29.79,9.38-41.98c6.25-12.18,14.9-21.73,25.93-28.65Z"/>
        <rect class="cls-1" x="1303.18" y="2.07" width="64.7" height="346.99"/>
        <path class="cls-1" d="M1585.69,80.38v161.01c0,10.87-2.31,20.42-6.92,28.65-4.62,8.23-10.95,14.57-19.01,19.01-8.07,4.44-17.53,6.66-28.4,6.66s-19.93-2.22-28.15-6.66c-8.23-4.45-14.65-10.78-19.26-19.01-4.61-8.23-6.92-17.78-6.92-28.65V80.38h-64.7v162.99c0,22.06,4.94,41.49,14.82,58.28,9.88,16.79,23.78,29.88,41.73,39.27,17.94,9.38,38.6,14.08,61.99,14.08s44.94-4.69,62.73-14.08c17.78-9.39,31.69-22.47,41.74-39.27,10.04-16.79,15.06-36.22,15.06-58.28V80.38h-64.7Z"/>
      </g>
      <path class="cls-1" d="M412.27,177.43c-3-21.02-9.23-41.3-18.31-60.27-10.11-20.94-23.58-39.98-40.2-56.53-80.84-80.84-212.28-80.84-293.13,0C21.53,99.73,0,151.8,0,207.23s21.53,107.5,60.63,146.6c39.1,39.1,91.17,60.63,146.6,60.63s107.5-21.53,146.6-60.63c46.57-46.65,67.88-110.94,58.43-176.4ZM359.76,233.59c-6,35.15-23.36,66.27-50.31,90-28.85,25.41-65.54,38.08-102.15,38.08s-75.79-13.55-105.08-40.49c-31.27-28.85-48.99-68.25-49.79-110.79-.88-42.62,15.23-82.6,45.25-112.7,52.72-52.72,135.69-60.41,197.13-18.23,7.84,5.42,15.23,11.57,21.89,18.23,6.74,6.74,12.81,14.06,18.23,21.89,8.27,12.16,14.79,25.34,19.41,39.25l.29,1.03-96.29,96.29c-13.69,13.69-32.81,21.31-52.28,21.31-19.11-.15-36.76-7.62-49.79-21.02-26.65-27.61-26.29-72.13.88-99.3,19.77-19.7,49.36-26,75.42-15.96l2.64,1.03-50.67,50.6c-10.18,10.25-10.18,26.87,0,37.05,4.98,4.98,11.57,7.69,18.53,7.69s13.62-2.71,18.53-7.69l89.26-89.26c-4.76-7.32-10.33-14.21-16.55-20.5-6.59-6.59-13.91-12.38-21.75-17.28-52.06-32.66-121.04-21.46-160.44,26.07-37.71,45.55-37.05,113.72,1.54,158.54,22.7,26.36,54.26,41.59,88.9,42.84,34.27,1.39,67.66-11.79,91.75-35.88l66.42-66.42-.95,5.64Z"/>
    </g>
  </g>
</svg>